HIERARCHY
ROOT Hips
{
	OFFSET 8.335690 39.453602 32.377102 
	CHANNELS 6 Xposition Yposition Zposition Zrotation Xrotation Yrotation
	JOINT LeftHip
	{
		OFFSET 3.430000 0.000000 0.000000 
		CHANNELS 6 Xposition Yposition Zposition Zrotation Xrotation Yrotation
		JOINT LeftKnee
		{
			OFFSET 0.000000 -18.469999 0.000000 
			CHANNELS 6 Xposition Yposition Zposition Zrotation Xrotation Yrotation
			JOINT LeftAnkle
			{
				OFFSET 0.000000 -17.950001 0.000000 
				CHANNELS 6 Xposition Yposition Zposition Zrotation Xrotation Yrotation
				End Site
				{
					OFFSET 0.000000 -3.120000 0.000000 
				}
			}
		}
	}
	JOINT RightHip
	{
		OFFSET -3.430000 0.000000 0.000000 
		CHANNELS 6 Xposition Yposition Zposition Zrotation Xrotation Yrotation
		JOINT RightKnee
		{
			OFFSET 0.000000 -18.469999 0.000000 
			CHANNELS 6 Xposition Yposition Zposition Zrotation Xrotation Yrotation
			JOINT RightAnkle
			{
				OFFSET 0.000000 -17.950001 0.000000 
				CHANNELS 6 Xposition Yposition Zposition Zrotation Xrotation Yrotation
				End Site
				{
					OFFSET 0.000000 -3.120000 0.000000 
				}
			}
		}
	}
	JOINT Chest
	{
		OFFSET 0.000000 4.570000 0.000000 
		CHANNELS 6 Xposition Yposition Zposition Zrotation Xrotation Yrotation
		JOINT CS_BVH
		{
			OFFSET 0.000000 6.570000 0.000000 
			CHANNELS 6 Xposition Yposition Zposition Zrotation Xrotation Yrotation
			JOINT LeftCollar
			{
				OFFSET 1.060000 4.190000 1.760000 
				CHANNELS 6 Xposition Yposition Zposition Zrotation Xrotation Yrotation
				JOINT LeftShoulder
				{
					OFFSET 5.810000 0.000000 0.000000 
					CHANNELS 6 Xposition Yposition Zposition Zrotation Xrotation Yrotation
					JOINT LeftElbow
					{
						OFFSET 0.000000 -12.080000 0.000000 
						CHANNELS 6 Xposition Yposition Zposition Zrotation Xrotation Yrotation
						JOINT LeftWrist
						{
							OFFSET 0.000000 -9.820000 0.000000 
							CHANNELS 6 Xposition Yposition Zposition Zrotation Xrotation Yrotation
							End Site
							{
								OFFSET 0.000000 -7.370000 0.000000 
							}
						}
					}
				}
			}
			JOINT RightCollar
			{
				OFFSET -1.060000 4.190000 1.760000 
				CHANNELS 6 Xposition Yposition Zposition Zrotation Xrotation Yrotation
				JOINT RightShoulder
				{
					OFFSET -6.060000 0.000000 0.000000 
					CHANNELS 6 Xposition Yposition Zposition Zrotation Xrotation Yrotation
					JOINT RightElbow
					{
						OFFSET 0.000000 -11.080000 0.000000 
						CHANNELS 6 Xposition Yposition Zposition Zrotation Xrotation Yrotation
						JOINT RightWrist
						{
							OFFSET 0.000000 -9.820000 0.000000 
							CHANNELS 6 Xposition Yposition Zposition Zrotation Xrotation Yrotation
							End Site
							{
								OFFSET 0.000000 -7.140010 0.000000 
							}
						}
					}
				}
			}
			JOINT Neck
			{
				OFFSET 0.000000 4.050000 0.000000 
				CHANNELS 6 Xposition Yposition Zposition Zrotation Xrotation Yrotation
				JOINT Head
				{
					OFFSET 0.000000 5.190000 0.000000 
					CHANNELS 6 Xposition Yposition Zposition Zrotation Xrotation Yrotation
					End Site
					{
						OFFSET 0.000000 4.140010 0.000000 
					}
				}
			}
		}
	}
}
MOTION
Frames: 10
Frame Time: 0.033333
63.749302 39.572002 -42.604099 -4.034461 -4.811513 -59.952900 3.430000 -0.000000 0.000000 0.360582 -1.331300 4.764580 0.000000 -18.469999 -0.000000 -2.596740 14.230200 6.428060 0.000000 -17.950001 -0.000000 -0.053094 -6.949830 -0.323148 -3.430000 0.000000 0.000000 -5.433340 1.419860 -1.342740 0.000000 -18.469999 -0.000000 2.685010 18.021601 1.741140 0.000000 -17.950001 -0.000000 0.091232 -13.464300 0.390005 -0.000000 4.570000 0.000000 -1.016970 3.246650 0.994353 -0.000000 6.570000 0.000000 0.735877 6.498430 1.917420 1.060000 4.190000 1.760000 -10.319100 16.570000 5.278540 5.810000 -0.000000 0.000000 27.806999 6.524270 -33.495701 -0.000000 -12.080000 -0.000000 10.057600 -80.443901 -34.847801 -0.000000 -9.820000 0.000000 12.955800 7.210410 0.005126 -1.060000 4.190000 1.760000 14.966900 18.993700 8.818790 -6.060000 0.000000 0.000000 -44.576698 4.476060 13.161300 -0.000000 -11.080000 -0.000000 35.081902 -53.382000 47.465801 -0.000000 -9.820000 -0.000000 -17.681801 10.148200 1.773190 -0.000000 4.050000 0.000000 8.803050 8.345050 15.692700 -0.000000 5.190000 0.000000 -8.253700 -27.423599 16.369900 
63.973400 39.589001 -42.474602 -4.031320 -4.513731 -59.302887 3.430000 -0.000000 0.000000 0.367960 -1.462080 4.179500 0.000000 -18.469999 -0.000000 -2.066970 14.648400 5.821380 0.000000 -17.950001 -0.000000 -0.333825 -7.280530 -0.324959 -3.430000 0.000000 0.000000 -5.251610 1.459910 -1.329820 0.000000 -18.469999 -0.000000 2.377590 17.344101 1.201750 0.000000 -17.950001 -0.000000 0.693467 -12.960700 0.399708 -0.000000 4.570000 0.000000 -0.995792 3.206470 0.950641 -0.000000 6.570000 0.000000 0.785268 6.418640 1.827100 1.060000 4.190000 1.760000 -9.599540 16.466900 4.631860 5.810000 -0.000000 0.000000 27.187401 4.370830 -33.795502 -0.000000 -12.080000 -0.000000 12.075300 -80.487801 -32.794399 -0.000000 -9.820000 0.000000 13.031700 7.092230 -0.014127 -1.060000 4.190000 1.760000 15.590200 18.754200 8.601330 -6.060000 0.000000 0.000000 -44.335499 5.333540 13.085500 -0.000000 -11.080000 -0.000000 34.505699 -53.494499 47.032398 -0.000000 -9.820000 -0.000000 -17.190399 10.713400 1.786290 -0.000000 4.050000 0.000000 9.607680 8.247940 15.122700 -0.000000 5.190000 0.000000 -8.668280 -27.114300 16.577900 
64.210800 39.600101 -42.295502 -3.984080 -4.342030 -58.577499 3.430000 -0.000000 0.000000 0.267824 -1.723720 3.712970 0.000000 -18.469999 -0.000000 -1.980680 14.674500 5.059060 0.000000 -17.950001 -0.000000 -0.072925 -7.201580 -0.334182 -3.430000 0.000000 0.000000 -5.212710 1.534800 -1.381800 0.000000 -18.469999 -0.000000 1.951900 16.800200 0.539955 0.000000 -17.950001 -0.000000 1.441040 -12.585200 0.416633 -0.000000 4.570000 0.000000 -0.960139 3.202650 0.885950 -0.000000 6.570000 0.000000 0.842433 6.411250 1.699620 1.060000 4.190000 1.760000 -9.259980 16.540001 4.225850 5.810000 -0.000000 0.000000 26.658600 1.319730 -34.174801 -0.000000 -12.080000 -0.000000 14.061800 -80.553596 -30.197001 -0.000000 -9.820000 0.000000 13.062000 7.492290 -0.009500 -1.060000 4.190000 1.760000 15.550900 18.624800 8.251100 -6.060000 0.000000 0.000000 -43.770802 5.467690 13.192700 -0.000000 -11.080000 -0.000000 34.214600 -53.096802 46.830002 -0.000000 -9.820000 -0.000000 -17.106300 10.786900 1.787140 -0.000000 4.050000 0.000000 10.036600 7.816450 14.599200 -0.000000 5.190000 0.000000 -8.966110 -26.618900 16.632500 
64.409393 39.578800 -42.052200 -4.448249 -4.639464 -57.712196 3.430000 -0.000000 0.000000 0.185864 -1.727990 3.560280 0.000000 -18.469999 -0.000000 -2.432520 15.282300 4.064180 0.000000 -17.950001 -0.000000 0.681454 -7.290810 -0.361668 -3.430000 0.000000 0.000000 -5.564030 2.219510 -1.975170 0.000000 -18.469999 -0.000000 1.991280 16.832500 -0.511617 0.000000 -17.950001 -0.000000 2.037280 -12.636000 0.443710 -0.000000 4.570000 0.000000 -0.953389 3.284220 0.827403 -0.000000 6.570000 0.000000 0.850795 6.573800 1.579520 1.060000 4.190000 1.760000 -9.078420 17.109400 3.863120 5.810000 -0.000000 0.000000 26.309000 -2.412860 -34.734100 -0.000000 -12.080000 -0.000000 15.703500 -80.323502 -28.935900 -0.000000 -9.820000 0.000000 13.684100 7.678540 -0.054911 -1.060000 4.190000 1.760000 15.831200 19.015499 7.667220 -6.060000 0.000000 0.000000 -43.782600 5.654000 13.038800 -0.000000 -11.080000 -0.000000 34.365002 -53.130699 47.309799 -0.000000 -9.820000 -0.000000 -17.069901 10.702500 1.773330 -0.000000 4.050000 0.000000 10.290300 8.145580 14.326200 -0.000000 5.190000 0.000000 -8.562590 -26.516600 16.882200 
64.624603 39.551296 -41.812401 -4.426720 -4.497530 -56.946995 3.430000 -0.000000 0.000000 0.334395 -2.376930 3.495960 0.000000 -18.469999 -0.000000 -2.984430 16.073099 2.784940 0.000000 -17.950001 -0.000000 1.449480 -7.514810 -0.386235 -3.430000 0.000000 0.000000 -5.568200 1.972780 -2.236600 0.000000 -18.469999 -0.000000 1.532040 17.048100 -2.272280 0.000000 -17.950001 -0.000000 3.071720 -12.559000 0.482947 -0.000000 4.570000 0.000000 -0.944948 3.307300 0.786046 -0.000000 6.570000 0.000000 0.874204 6.618890 1.499730 1.060000 4.190000 1.760000 -9.058280 17.288799 3.574490 5.810000 -0.000000 0.000000 26.197901 -6.122310 -35.391602 -0.000000 -12.080000 -0.000000 16.135300 -80.050400 -28.916100 -0.000000 -9.820000 0.000000 14.655400 7.712380 -0.129643 -1.060000 4.190000 1.760000 15.965400 19.075800 7.299510 -6.060000 0.000000 0.000000 -43.768101 5.655470 12.947000 -0.000000 -11.080000 -0.000000 34.407299 -53.006302 47.541100 -0.000000 -9.820000 -0.000000 -16.931400 10.515100 1.732970 -0.000000 4.050000 0.000000 10.735500 8.231000 13.732900 -0.000000 5.190000 0.000000 -8.749990 -26.742001 16.841499 
64.907089 39.513401 -41.576500 -4.198970 -4.738969 -56.327702 3.430000 -0.000000 0.000000 -0.369739 -2.726600 2.863780 0.000000 -18.469999 -0.000000 -3.243800 16.451900 1.487350 0.000000 -17.950001 -0.000000 2.240780 -7.603320 -0.408368 -3.430000 0.000000 0.000000 -6.407070 1.349360 -2.911760 0.000000 -18.469999 -0.000000 1.739350 17.987400 -2.841520 0.000000 -17.950001 -0.000000 3.512230 -12.788800 0.517089 -0.000000 4.570000 0.000000 -0.977810 3.352200 0.743942 -0.000000 6.570000 0.000000 0.789997 6.707750 1.424230 1.060000 4.190000 1.760000 -9.416190 17.577801 3.412010 5.810000 -0.000000 0.000000 26.243200 -10.253000 -36.029999 -0.000000 -12.080000 -0.000000 15.787200 -79.412003 -29.798901 -0.000000 -9.820000 0.000000 15.462100 7.649700 -0.194980 -1.060000 4.190000 1.760000 15.615700 19.259701 6.981980 -6.060000 0.000000 0.000000 -43.684101 5.306660 12.856100 -0.000000 -11.080000 -0.000000 34.985100 -53.499100 48.148800 -0.000000 -9.820000 -0.000000 -17.241501 10.871600 1.815630 -0.000000 4.050000 0.000000 10.237600 8.341310 13.691300 -0.000000 5.190000 0.000000 -8.160750 -26.804001 16.773600 
65.225494 39.415501 -41.357201 -3.993907 -4.934929 -55.946289 3.430000 -0.000000 0.000000 -1.253480 -3.883360 2.426750 0.000000 -18.469999 -0.000000 -3.296100 18.010401 2.179250 0.000000 -17.950001 -0.000000 2.793210 -8.124300 -0.421208 -3.430000 0.000000 0.000000 -7.248500 0.055426 -3.472480 0.000000 -18.469999 -0.000000 1.961060 20.048201 -3.398480 0.000000 -17.950001 -0.000000 3.965250 -13.471700 0.586223 -0.000000 4.570000 0.000000 -1.096770 3.387430 0.770826 -0.000000 6.570000 0.000000 0.607678 6.774220 1.483430 1.060000 4.190000 1.760000 -9.330830 17.783001 3.279090 5.810000 -0.000000 0.000000 25.968000 -14.477100 -37.227699 -0.000000 -12.080000 -0.000000 15.539400 -78.482201 -30.506701 -0.000000 -9.820000 0.000000 15.521900 7.520620 -0.201789 -1.060000 4.190000 1.760000 15.295900 19.481899 7.025320 -6.060000 0.000000 0.000000 -43.373299 5.397650 11.838200 -0.000000 -11.080000 -0.000000 35.279099 -54.870899 48.415199 -0.000000 -9.820000 -0.000000 -17.043301 10.921700 1.799050 -0.000000 4.050000 0.000000 10.254200 8.509040 13.559000 -0.000000 5.190000 0.000000 -8.263260 -25.968500 16.862700 
65.404800 39.369099 -41.111099 -4.275710 -5.964120 -55.453499 3.430000 -0.000000 0.000000 -2.192560 -3.033190 2.037150 0.000000 -18.469999 -0.000000 -3.706160 17.967899 1.523830 0.000000 -17.950001 -0.000000 3.535480 -8.088180 -0.439175 -3.430000 0.000000 0.000000 -7.896370 0.098852 -3.826250 0.000000 -18.469999 -0.000000 1.335550 21.553200 -4.088680 0.000000 -17.950001 -0.000000 4.673910 -14.042500 0.666641 -0.000000 4.570000 0.000000 -1.186230 3.587910 0.746551 -0.000000 6.570000 0.000000 0.392082 7.174890 1.444340 1.060000 4.190000 1.760000 -10.170700 18.959900 3.453080 5.810000 -0.000000 0.000000 26.841999 -18.924801 -37.890400 -0.000000 -12.080000 -0.000000 14.871300 -77.306602 -31.411900 -0.000000 -9.820000 0.000000 15.641300 7.009040 -0.210072 -1.060000 4.190000 1.760000 14.783600 20.633600 6.685860 -6.060000 0.000000 0.000000 -43.341000 4.120070 11.696500 -0.000000 -11.080000 -0.000000 36.160198 -55.949299 47.666199 -0.000000 -9.820000 -0.000000 -17.817499 10.872200 1.883950 -0.000000 4.050000 0.000000 9.725720 9.138050 13.277600 -0.000000 5.190000 0.000000 -8.349370 -24.992001 16.894600 
65.526596 39.382801 -40.910301 -4.391181 -6.259621 -54.881901 3.430000 -0.000000 0.000000 -2.438040 -2.388410 1.924920 0.000000 -18.469999 -0.000000 -4.138190 17.352301 0.506276 0.000000 -17.950001 -0.000000 4.219480 -7.763460 -0.462095 -3.430000 0.000000 0.000000 -7.513330 -0.230883 -3.620840 0.000000 -18.469999 -0.000000 0.723128 22.710800 -4.743220 0.000000 -17.950001 -0.000000 4.173340 -14.431700 0.660515 -0.000000 4.570000 0.000000 -1.182780 3.732270 0.709043 -0.000000 6.570000 0.000000 0.335741 7.464300 1.380540 1.060000 4.190000 1.760000 -10.939200 19.811199 3.511280 5.810000 -0.000000 0.000000 28.068001 -22.306499 -38.330601 -0.000000 -12.080000 -0.000000 13.428700 -76.266296 -32.355900 -0.000000 -9.820000 0.000000 16.656500 6.431740 -0.279168 -1.060000 4.190000 1.760000 14.459800 21.436501 6.440100 -6.060000 0.000000 0.000000 -43.027302 2.515300 11.258300 -0.000000 -11.080000 -0.000000 36.492100 -56.339500 47.683498 -0.000000 -9.820000 -0.000000 -18.323299 10.177300 1.848830 -0.000000 4.050000 0.000000 8.703790 9.286510 13.506200 -0.000000 5.190000 0.000000 -7.483560 -23.560900 16.613001 
65.600891 39.401302 -40.737202 -4.210110 -6.052505 -53.616096 3.430000 -0.000000 0.000000 -2.180570 -2.358760 1.842220 0.000000 -18.469999 -0.000000 -4.701270 17.029699 -1.333060 0.000000 -17.950001 -0.000000 4.970040 -7.517820 -0.488464 -3.430000 0.000000 0.000000 -6.867720 -1.540090 -3.425350 0.000000 -18.469999 -0.000000 1.345790 25.176300 -4.685100 0.000000 -17.950001 -0.000000 1.513260 -15.436800 0.551260 -0.000000 4.570000 0.000000 -1.151550 3.815490 0.626006 -0.000000 6.570000 0.000000 0.327995 7.631480 1.227890 1.060000 4.190000 1.760000 -10.531600 20.434000 2.997670 5.810000 -0.000000 0.000000 28.131201 -24.412500 -38.401100 -0.000000 -12.080000 -0.000000 11.521400 -75.534897 -34.176102 -0.000000 -9.820000 0.000000 17.529301 5.648350 -0.327521 -1.060000 4.190000 1.760000 14.363300 21.815901 5.882000 -6.060000 0.000000 0.000000 -42.820301 0.631795 11.435800 -0.000000 -11.080000 -0.000000 37.072201 -56.521599 48.244999 -0.000000 -9.820000 -0.000000 -19.489000 10.862200 2.083200 -0.000000 4.050000 0.000000 8.353190 9.648380 12.866100 -0.000000 5.190000 0.000000 -7.257420 -22.799601 16.224001 
